<svg width="10" height="10" viewBox="0 0 10 10" fill="none" xmlns="http://www.w3.org/2000/svg">
<path d="M8.95014 9.10006C8.7243 9.29838 8.46082 9.42459 8.1597 9.47868C8.10324 9.49671 8.02796 9.49671 7.9715 9.49671C7.95268 9.49671 7.91504 9.49671 7.85858 9.49671H7.76448C5.99541 9.55079 4.2828 8.93779 2.94659 7.72982C1.45982 6.39564 0.57528 4.46648 0.5 2.44718C0.5 2.39309 0.5 2.33901 0.5 2.30295C0.5 2.28492 0.5 2.26689 0.5 2.24886C0.5 2.19477 0.5 2.14068 0.5 2.06856V2.05053C0.55646 1.18512 1.23398 0.518029 2.06205 0.5C2.17497 0.5 2.28789 0.5 2.38199 0.51803C2.53255 0.554088 2.68311 0.608177 2.83367 0.680295L3.30417 3.3126C3.05951 3.60107 2.72075 3.79939 2.36317 3.85348C2.36317 3.85348 2.36317 3.85348 2.34435 3.85348C2.34435 3.85348 2.34435 3.85348 2.32553 3.85348C2.32553 3.85348 2.30671 3.85348 2.30671 3.87151C2.28789 3.87151 2.28789 3.88954 2.26907 3.88954C2.25025 3.88954 2.25025 3.90757 2.25025 3.90757L2.23143 3.9256C2.23143 3.94363 2.21261 3.94363 2.21261 3.96166C2.21261 3.97969 2.21261 3.97969 2.19379 3.99772C2.19379 4.01575 2.19379 4.01575 2.19379 4.03378V4.05181C2.19379 4.05181 2.19379 4.05181 2.19379 4.06984C2.19379 4.06984 2.19379 4.06984 2.19379 4.08786C2.81485 5.90884 4.24516 7.29711 6.05187 7.80194H6.07069C6.07069 7.80194 6.07069 7.80194 6.08951 7.80194H6.10833C6.12715 7.80194 6.14597 7.80194 6.16479 7.78391C6.16479 7.78391 6.18361 7.78391 6.18361 7.76588C6.20243 7.76588 6.20243 7.74785 6.22125 7.74785L6.24007 7.72982C6.24007 7.71179 6.25889 7.71179 6.25889 7.69376C6.25889 7.69376 6.25889 7.67573 6.27771 7.67573V7.6577V7.63967V7.62164C6.31535 7.24302 6.48473 6.88243 6.74821 6.59396L9.2889 6.93652C9.36418 7.06273 9.42064 7.20696 9.45828 7.3512V7.36923C9.4771 7.44135 9.49592 7.53149 9.49592 7.60361C9.49592 7.63967 9.49592 7.67573 9.49592 7.71179C9.53356 8.28873 9.30772 8.77553 8.95014 9.10006Z"/>
</svg>
