<svg width="20" height="20" viewBox="0 0 20 20" fill="none" xmlns="http://www.w3.org/2000/svg">
<path d="M6.43772 7.51447C6.58694 7.6644 6.78309 7.73898 6.97923 7.73898C7.17538 7.73898 7.37152 7.6644 7.52075 7.51447C7.81996 7.21538 7.81996 6.73023 7.52075 6.43114L1.39411 0.300977C1.09489 0.001888 0.610299 0.001888 0.311083 0.300977C0.0118657 0.600065 0.0118657 1.08522 0.311083 1.38431L6.43772 7.51447Z" fill="#009aff"/>
<path d="M11.126 10.0378L19.7756 1.38423C20.0748 1.08514 20.0748 0.599987 19.7756 0.300899C19.4764 0.00181007 18.9918 -0.130435 18.6926 0.169423L9.50222 9.23204H9.27454V9.4973L0.198042 18.6914C-0.101175 18.9905 -0.0442543 19.4756 0.254193 19.7747C0.403417 19.9247 0.628022 19.9992 0.824166 19.9992C1.02031 19.9992 1.2303 19.9247 1.37953 19.7747L10.036 11.1219L18.6887 19.7755C18.8379 19.9254 19.0364 20 19.2318 20C19.4271 20 19.6248 19.9254 19.774 19.7755C20.0733 19.4764 20.074 18.9913 19.7748 18.6922L11.126 10.0378Z" fill="#009aff"/>
</svg>
